<svg width="23" height="23" viewBox="0 0 23 23" fill="none" xmlns="http://www.w3.org/2000/svg">
<path d="M6.22384 5.86483H4.75348C3.19057 5.86483 2.40977 5.86483 1.85389 6.20846C1.36608 6.51001 0.991103 6.98636 0.795298 7.5545C0.572314 8.20152 0.700666 9.03145 0.957286 10.6909L0.957815 10.694L2.08024 17.9518C2.27064 19.183 2.36647 19.7988 2.65151 20.2609C2.90278 20.6681 3.25549 20.99 3.66952 21.1901C4.13919 21.4172 4.71804 21.4173 5.87622 21.4173H16.1924C17.3506 21.4173 17.9291 21.4172 18.3988 21.1901C18.8128 20.99 19.1658 20.6681 19.4171 20.2609C19.7021 19.7988 19.7974 19.183 19.9878 17.9518L21.1102 10.694L21.1114 10.689C21.3678 9.0308 21.4961 8.20126 21.2731 7.5545C21.0773 6.98636 20.7032 6.51001 20.2155 6.20846C19.6596 5.86483 18.8775 5.86483 17.3146 5.86483H15.8445M6.22384 5.86483H15.8445M6.22384 5.86483C6.22384 3.00169 8.3775 0.680664 11.0342 0.680664C13.6908 0.680664 15.8445 3.00169 15.8445 5.86483" stroke="black" stroke-width="1.36111" stroke-linecap="round" stroke-linejoin="round"/>
</svg>
