<svg width="31" height="31" viewBox="0 0 31 31" fill="none" xmlns="http://www.w3.org/2000/svg">
<path d="M14.081 0C7.65937 0.00625665 4.33685 0.121145 2.229 2.229C0.121145 4.33685 0.00625665 7.65937 0 14.081H7.47984C6.94556 13.4136 6.54635 12.6264 6.32867 11.7556C5.50929 8.47808 8.47808 5.50929 11.7556 6.32867C12.6264 6.54635 13.4136 6.94556 14.081 7.47984V0Z" fill="#1C274C"/>
<path d="M0 16.3645C0.00625665 22.786 0.121145 26.1084 2.229 28.2164C4.33685 30.3241 7.65937 30.4391 14.081 30.4453V18.4555C12.894 20.8262 10.4427 22.4537 7.61113 22.4537C6.98058 22.4537 6.4694 21.9425 6.4694 21.312C6.4694 20.6814 6.98058 20.1702 7.61113 20.1702C9.95058 20.1702 11.9108 18.5464 12.4262 16.3645H0Z" fill="#1C274C"/>
<path d="M16.3643 30.4453C22.7858 30.4391 26.1082 30.3241 28.2161 28.2164C30.3239 26.1084 30.4388 22.786 30.4451 16.3645H18.0188C18.5343 18.5464 20.4946 20.1702 22.834 20.1702C23.4646 20.1702 23.9757 20.6814 23.9757 21.312C23.9757 21.9425 23.4646 22.4537 22.834 22.4537C20.0024 22.4537 17.551 20.8262 16.3643 18.4555V30.4453Z" fill="#1C274C"/>
<path d="M30.4451 14.0811C30.4388 7.65949 30.3239 4.33697 28.2161 2.22912C26.1082 0.121267 22.7858 0.00637872 16.3643 0.00012207V7.47997C17.0316 6.94568 17.8188 6.54648 18.6894 6.32879C21.9671 5.50941 24.9359 8.4782 24.1164 11.7557C23.8987 12.6265 23.4996 13.4137 22.9652 14.0811H30.4451Z" fill="#1C274C"/>
<path d="M11.2019 8.54412C12.8939 8.96713 14.081 10.4875 14.081 12.2315V14.0811H12.2314C10.4873 14.0811 8.96701 12.8941 8.544 11.202C8.1427 9.5968 9.59668 8.14283 11.2019 8.54412Z" fill="#1C274C"/>
<path d="M16.3643 12.2315V14.0811H18.2137C19.9578 14.0811 21.4781 12.8941 21.9012 11.202C22.3024 9.5968 20.8485 8.14283 19.2434 8.54412C17.5512 8.96713 16.3643 10.4875 16.3643 12.2315Z" fill="#1C274C"/>
</svg>
