<svg width="49" height="36" viewBox="0 0 49 36" fill="none" xmlns="http://www.w3.org/2000/svg">
<path d="M11.3535 0C17.6283 0 22.7119 5.08478 22.7119 11.3574C22.7118 16.5226 19.6265 26.6669 11.7461 35.2861C11.1592 35.9008 10.2504 36.1652 9.38672 35.8936C8.1695 35.5151 7.49066 34.2194 7.87109 33.0029C11.2983 26.9312 11.3535 22.7119 11.3535 22.7119C5.08316 22.7119 0.000114911 17.6278 0 11.3574C0 5.0848 5.08309 4.45425e-05 11.3535 0ZM37.2979 0C43.5727 0 48.6562 5.08478 48.6562 11.3574C48.6561 16.5227 45.5709 26.6669 37.6904 35.2861C37.1036 35.9008 36.1947 36.1652 35.3311 35.8936C34.1139 35.515 33.4359 34.2194 33.8164 33.0029C37.2436 26.9312 37.2979 22.7119 37.2979 22.7119C31.0276 22.7118 25.9445 17.6277 25.9443 11.3574C25.9443 5.08497 31.0275 0.000159791 37.2979 0Z" fill="#FAC848"/>
</svg>
