<svg width="24" height="24" viewBox="0 0 24 24" fill="none" xmlns="http://www.w3.org/2000/svg">
<path d="M11.1 0C6.03787 0.00493211 3.41873 0.0954982 1.75711 1.75711C0.0954982 3.41873 0.00493211 6.03787 0 11.1H5.89635C5.47518 10.5739 5.16048 9.95338 4.98888 9.26694C4.34297 6.68326 6.68326 4.34297 9.26694 4.98888C9.95338 5.16048 10.5739 5.47518 11.1 5.89635V0Z" fill="#FAC848"/>
<path d="M0 12.9001C0.00493211 17.9622 0.0954982 20.5812 1.75711 22.2429C3.41873 23.9044 6.03787 23.995 11.1 24V14.5484C10.1643 16.4172 8.23194 17.7002 5.99984 17.7002C5.50278 17.7002 5.09982 17.2972 5.09982 16.8002C5.09982 16.3031 5.50278 15.9002 5.99984 15.9002C7.84403 15.9002 9.38927 14.6201 9.79557 12.9001H0Z" fill="#FAC848"/>
<path d="M12.8994 24C17.9615 23.995 20.5805 23.9044 22.2422 22.2429C23.9038 20.5812 23.9944 17.9622 23.9993 12.9001H14.2037C14.6101 14.6201 16.1553 15.9002 17.9995 15.9002C18.4966 15.9002 18.8995 16.3031 18.8995 16.8002C18.8995 17.2972 18.4966 17.7002 17.9995 17.7002C15.7674 17.7002 13.835 16.4172 12.8994 14.5484V24Z" fill="#FAC848"/>
<path d="M23.9993 11.1001C23.9944 6.03793 23.9038 3.41879 22.2422 1.75718C20.5805 0.0955592 17.9615 0.00499314 12.8994 6.10352e-05V5.89641C13.4255 5.47524 14.046 5.16054 14.7323 4.98894C17.3161 4.34303 19.6564 6.68332 19.0104 9.267C18.8388 9.95344 18.5242 10.574 18.103 11.1001H23.9993Z" fill="#FAC848"/>
<path d="M8.83023 6.73529C10.1641 7.06875 11.0999 8.26723 11.0999 9.64209V11.1001H9.64184C8.26698 11.1001 7.06851 10.1643 6.73504 8.83047C6.4187 7.56512 7.56487 6.41895 8.83023 6.73529Z" fill="#FAC848"/>
<path d="M12.8994 9.64209V11.1001H14.3573C15.7322 11.1001 16.9307 10.1643 17.2641 8.83047C17.5805 7.56512 16.4343 6.41895 15.169 6.73529C13.8351 7.06875 12.8994 8.26723 12.8994 9.64209Z" fill="#FAC848"/>
</svg>
