<svg width="65" height="64" viewBox="0 0 65 64" fill="none" xmlns="http://www.w3.org/2000/svg">
<path d="M32.0453 25.5167L56.2655 1.36216C58.0575 -0.425633 60.9595 -0.422267 62.7473 1.36968C64.5352 3.16162 64.5318 6.06366 62.7398 7.85152L38.53 31.9958L62.7293 56.1745C64.5199 57.9638 64.5209 60.8658 62.7317 62.6564C60.9424 64.447 58.0404 64.448 56.2498 62.6588L32.0393 38.4688L7.82052 62.622C6.0285 64.4098 3.12653 64.4064 1.33867 62.6145C-0.449191 60.8226 -0.445754 57.9205 1.34619 56.1326L25.5547 31.9898L1.36982 7.82545C-0.42076 6.03623 -0.421762 3.13419 1.36746 1.34361C3.15668 -0.446974 6.05872 -0.447976 7.84931 1.34125L32.0453 25.5167H32.0453Z" fill="white"/>
</svg>
