<svg width="55" height="44" viewBox="0 0 55 44" fill="none" xmlns="http://www.w3.org/2000/svg">
<path d="M54.1182 4.37482C49.1492 8.15554 45.5846 11.7742 43.4242 15.2309C41.3718 18.5795 40.3456 22.3062 40.3456 26.411C41.7499 25.5468 43.3702 25.1147 45.2065 25.1147C47.691 25.1147 49.6893 25.9789 51.2016 27.7072C52.8219 29.3275 53.6321 31.4339 53.6321 34.0264C53.6321 36.9429 52.6059 39.3194 50.5535 41.1557C48.6091 42.9921 45.9626 43.9103 42.614 43.9103C34.9446 43.9103 31.1098 38.8333 31.1098 28.6794C31.1098 25.9789 31.4339 23.4944 32.082 21.226C32.7302 18.8495 33.7563 16.5811 35.1606 14.4207C36.6729 12.1523 38.6713 9.88386 41.1557 7.61543C43.6402 5.23898 46.7188 2.70051 50.3915 0L54.1182 4.37482ZM23.0083 4.37482C18.0394 8.15554 14.4747 11.7742 12.3143 15.2309C10.2619 18.5795 9.23574 22.3062 9.23574 26.411C10.64 25.5468 12.2603 25.1147 14.0967 25.1147C16.5811 25.1147 18.5795 25.9789 20.0918 27.7072C21.7121 29.3275 22.5222 31.4339 22.5222 34.0264C22.5222 36.9429 21.496 39.3194 19.4437 41.1557C17.4993 42.9921 14.8528 43.9103 11.5042 43.9103C3.83472 43.9103 0 38.8333 0 28.6794C0 25.9789 0.324061 23.4944 0.972183 21.226C1.6203 18.8495 2.6465 16.5811 4.05076 14.4207C5.56305 12.1523 7.56142 9.88386 10.0459 7.61543C12.5304 5.23898 15.6089 2.70051 19.2816 0L23.0083 4.37482Z" fill="#FAC848"/>
</svg>
