<svg width="44" height="36" viewBox="0 0 44 36" fill="none" xmlns="http://www.w3.org/2000/svg">
<path d="M40.5742 0C42.0968 0 43.3319 1.23425 43.332 2.75684V33.2432C43.3317 34.7656 42.0967 36 40.5742 36H2.75781C1.23531 36 0.000333523 34.7656 0 33.2432V26.0186C0.000102674 25.1507 0.714259 24.4667 1.55664 24.2578C4.36517 23.5614 6.44719 21.0238 6.44727 18C6.44727 14.9762 4.36522 12.4386 1.55664 11.7422C0.714257 11.5333 0.000102755 10.8493 0 9.98145V2.75684C0.000150598 1.23425 1.23519 0 2.75781 0H40.5742ZM29.7227 18.6094C27.0292 18.6096 24.8457 20.7938 24.8457 23.4873C24.8459 26.1806 27.0294 28.3641 29.7227 28.3643C32.4161 28.3643 34.6004 26.1807 34.6006 23.4873C34.6006 20.7937 32.4163 18.6094 29.7227 18.6094ZM33.0234 9.21191C32.5474 8.73621 31.7759 8.73618 31.2998 9.21191L15.4482 25.0635C14.9722 25.5396 14.9721 26.312 15.4482 26.7881C15.9244 27.2641 16.6967 27.2641 17.1729 26.7881L33.0234 10.9365C33.4996 10.4603 33.4996 9.6881 33.0234 9.21191ZM29.7227 21.0479C31.0695 21.0479 32.1621 22.1404 32.1621 23.4873C32.1619 24.834 31.0694 25.9258 29.7227 25.9258C28.3761 25.9256 27.2844 24.8339 27.2842 23.4873C27.2842 22.1406 28.376 21.0481 29.7227 21.0479ZM18.749 7.63574C16.0556 7.63582 13.8723 9.81926 13.8721 12.5127C13.8721 15.2062 16.0554 17.3905 18.749 17.3906C21.4426 17.3906 23.626 15.2063 23.626 12.5127C23.6258 9.81921 21.4425 7.63574 18.749 7.63574ZM18.749 10.0742C20.0957 10.0742 21.1873 11.166 21.1875 12.5127C21.1875 13.8595 20.0958 14.9521 18.749 14.9521C17.4023 14.9521 16.3105 13.8595 16.3105 12.5127C16.3107 11.1661 17.4024 10.0743 18.749 10.0742Z" fill="#FAC848"/>
</svg>
